HIERARCHY
ROOT reference
{
  OFFSET -65.3212 -1.93545 -120.338
  CHANNELS 6 Xposition Yposition Zposition Zrotation Xrotation Yrotation
  JOINT Hips
  {
    OFFSET 0 78.7191 0
    CHANNELS 3 Zrotation Xrotation Yrotation
    JOINT Chest
    {
      OFFSET 0 8.7983 -4.7612
      CHANNELS 3 Zrotation Xrotation Yrotation
      JOINT Chest2
      {
        OFFSET 0 8.0291 0.4195
        CHANNELS 3 Zrotation Xrotation Yrotation
        JOINT Chest3
        {
          OFFSET 0 9.9351 -2.2114
          CHANNELS 3 Zrotation Xrotation Yrotation
          JOINT Neck
          {
            OFFSET 0 22.3885 -0.4656
            CHANNELS 3 Zrotation Xrotation Yrotation
            JOINT Head
            {
              OFFSET -0.0001 12.643 3.4389
              CHANNELS 3 Zrotation Xrotation Yrotation
              End Site
              {
                OFFSET 0.0001 17.6655 0.5274
              }
            }
          }
          JOINT LeftCollar
          {
            OFFSET 2.2603 21.606 7.4023
            CHANNELS 3 Zrotation Xrotation Yrotation
            JOINT LeftShoulder
            {
              OFFSET 13.5163 -1.1332 -5.0146
              CHANNELS 3 Zrotation Xrotation Yrotation
              JOINT LeftElbow
              {
                OFFSET -0.0995 -28.05 -0.2431
                CHANNELS 3 Zrotation Xrotation Yrotation
                JOINT LeftWrist
                {
                  OFFSET 0.0679 -23.3996 -0.1402
                  CHANNELS 3 Zrotation Xrotation Yrotation
                  JOINT LeftFinger1
                  {
                    OFFSET 0.7932 -9.069 2.5189
                    CHANNELS 3 Zrotation Xrotation Yrotation
                    JOINT LeftFinger11
                    {
                      OFFSET -0.8272 -3.3923 0.5977
                      CHANNELS 3 Zrotation Xrotation Yrotation
                      JOINT LeftFinger12
                      {
                        OFFSET -0.5649 -2.3158 0.4082
                        CHANNELS 3 Zrotation Xrotation Yrotation
                        End Site
                        {
                          OFFSET -0.4919 -1.6479 0.2673
                        }
                      }
                    }
                  }
                  JOINT LeftFinger2
                  {
                    OFFSET 0.9159 -9.2044 0.2193
                    CHANNELS 3 Zrotation Xrotation Yrotation
                    JOINT LeftFinger21
                    {
                      OFFSET 0.0117 -4.1944 -0.0248
                      CHANNELS 3 Zrotation Xrotation Yrotation
                      JOINT LeftFinger22
                      {
                        OFFSET 0.0071 -2.3249 -0.0142
                        CHANNELS 3 Zrotation Xrotation Yrotation
                        End Site
                        {
                          OFFSET -0.1475 -2.0882 0.0028
                        }
                      }
                    }
                  }
                  JOINT LeftFinger3
                  {
                    OFFSET 0.6113 -8.7231 -2.0637
                    CHANNELS 3 Zrotation Xrotation Yrotation
                    JOINT LeftFinger31
                    {
                      OFFSET -0.1927 -3.8059 -0.2383
                      CHANNELS 3 Zrotation Xrotation Yrotation
                      JOINT LeftFinger32
                      {
                        OFFSET -0.1091 -2.1688 -0.1362
                        CHANNELS 3 Zrotation Xrotation Yrotation
                        End Site
                        {
                          OFFSET -0.2358 -1.9176 -0.0906
                        }
                      }
                    }
                  }
                  JOINT LeftFinger4
                  {
                    OFFSET -0.6151 -8.0947 -3.5641
                    CHANNELS 3 Zrotation Xrotation Yrotation
                    JOINT LeftFinger41
                    {
                      OFFSET -0.4882 -2.341 -0.6462
                      CHANNELS 3 Zrotation Xrotation Yrotation
                      JOINT LeftFinger42
                      {
                        OFFSET -0.3575 -1.7167 -0.4742
                        CHANNELS 3 Zrotation Xrotation Yrotation
                        End Site
                        {
                          OFFSET -0.4187 -1.5237 -0.3496
                        }
                      }
                    }
                  }
                  JOINT LeftFinger0
                  {
                    OFFSET -1.42 -1.8761 1.4223
                    CHANNELS 3 Zrotation Xrotation Yrotation
                    JOINT LeftFinger01
                    {
                      OFFSET -1.1471 -3.4929 2.6334
                      CHANNELS 3 Zrotation Xrotation Yrotation
                      JOINT LeftFinger02
                      {
                        OFFSET -0.823 -2.3 1.6571
                        CHANNELS 3 Zrotation Xrotation Yrotation
                        End Site
                        {
                          OFFSET -0.5822 -1.6914 1.1582
                        }
                      }
                    }
                  }
                }
              }
            }
          }
          JOINT RightCollar
          {
            OFFSET -2.2603 21.606 7.4023
            CHANNELS 3 Zrotation Xrotation Yrotation
            JOINT RightShoulder
            {
              OFFSET -13.5187 -1.1334 -5.0155
              CHANNELS 3 Zrotation Xrotation Yrotation
              JOINT RightElbow
              {
                OFFSET 0.0994 -28.0499 -0.2431
                CHANNELS 3 Zrotation Xrotation Yrotation
                JOINT RightWrist
                {
                  OFFSET -0.0679 -23.3996 -0.1402
                  CHANNELS 3 Zrotation Xrotation Yrotation
                  JOINT RightFinger1
                  {
                    OFFSET -0.7932 -9.0691 2.5189
                    CHANNELS 3 Zrotation Xrotation Yrotation
                    JOINT RightFinger11
                    {
                      OFFSET 0.8272 -3.3923 0.5977
                      CHANNELS 3 Zrotation Xrotation Yrotation
                      JOINT RightFinger12
                      {
                        OFFSET 0.565 -2.3158 0.4082
                        CHANNELS 3 Zrotation Xrotation Yrotation
                        End Site
                        {
                          OFFSET 0.4919 -1.6479 0.2673
                        }
                      }
                    }
                  }
                  JOINT RightFinger2
                  {
                    OFFSET -0.916 -9.2044 0.2193
                    CHANNELS 3 Zrotation Xrotation Yrotation
                    JOINT RightFinger21
                    {
                      OFFSET -0.0117 -4.1944 -0.0248
                      CHANNELS 3 Zrotation Xrotation Yrotation
                      JOINT RightFinger22
                      {
                        OFFSET -0.0071 -2.3249 -0.0142
                        CHANNELS 3 Zrotation Xrotation Yrotation
                        End Site
                        {
                          OFFSET 0.1475 -2.0882 0.0028
                        }
                      }
                    }
                  }
                  JOINT RightFinger3
                  {
                    OFFSET -0.6113 -8.7231 -2.0637
                    CHANNELS 3 Zrotation Xrotation Yrotation
                    JOINT RightFinger31
                    {
                      OFFSET 0.1927 -3.8059 -0.2383
                      CHANNELS 3 Zrotation Xrotation Yrotation
                      JOINT RightFinger32
                      {
                        OFFSET 0.1091 -2.1688 -0.1362
                        CHANNELS 3 Zrotation Xrotation Yrotation
                        End Site
                        {
                          OFFSET 0.2358 -1.9176 -0.0906
                        }
                      }
                    }
                  }
                  JOINT RightFinger4
                  {
                    OFFSET 0.6151 -8.0947 -3.564
                    CHANNELS 3 Zrotation Xrotation Yrotation
                    JOINT RightFinger41
                    {
                      OFFSET 0.4882 -2.341 -0.6462
                      CHANNELS 3 Zrotation Xrotation Yrotation
                      JOINT RightFinger42
                      {
                        OFFSET 0.3574 -1.7166 -0.4742
                        CHANNELS 3 Zrotation Xrotation Yrotation
                        End Site
                        {
                          OFFSET 0.4187 -1.5237 -0.3496
                        }
                      }
                    }
                  }
                  JOINT RightFinger0
                  {
                    OFFSET 1.4199 -1.8761 1.4221
                    CHANNELS 3 Zrotation Xrotation Yrotation
                    JOINT RightFinger01
                    {
                      OFFSET 1.1472 -3.4929 2.6336
                      CHANNELS 3 Zrotation Xrotation Yrotation
                      JOINT RightFinger02
                      {
                        OFFSET 0.8229 -2.3 1.6571
                        CHANNELS 3 Zrotation Xrotation Yrotation
                        End Site
                        {
                          OFFSET 0.5822 -1.6914 1.1582
                        }
                      }
                    }
                  }
                }
              }
            }
          }
        }
      }
    }
    JOINT RightHip
    {
      OFFSET -9.412 3.9771 -0.7758
      CHANNELS 3 Zrotation Xrotation Yrotation
      JOINT RightKnee
      {
        OFFSET -0.7531 -40.938 0
        CHANNELS 3 Zrotation Xrotation Yrotation
        JOINT RightAnkle
        {
          OFFSET 0 -40.1986 0
          CHANNELS 3 Zrotation Xrotation Yrotation
          JOINT RightToe
          {
            OFFSET 0 -4.4182 9.239
            CHANNELS 3 Zrotation Xrotation Yrotation
            End Site
            {
              OFFSET 0 0 6.1981
            }
          }
        }
      }
    }
    JOINT LeftHip
    {
      OFFSET 9.4119 3.9773 -0.7758
      CHANNELS 3 Zrotation Xrotation Yrotation
      JOINT LeftKnee
      {
        OFFSET 0.7532 -40.9383 0
        CHANNELS 3 Zrotation Xrotation Yrotation
        JOINT LeftAnkle
        {
          OFFSET 0 -40.1986 0
          CHANNELS 3 Zrotation Xrotation Yrotation
          JOINT LeftToe
          {
            OFFSET 0 -4.4182 9.239
            CHANNELS 3 Zrotation Xrotation Yrotation
            End Site
            {
              OFFSET 0 0 6.1981
            }
          }
        }
      }
    }
  }
}
MOTION
Frames:	8
Frame Time:	0.0333333
0.566489 -0.33503 -2.91225 0 0 -0 -6.31219 -5.81447 13.0718 -0.8851 3.02165 -0.29962 -1.75803 6.04752 -0.553531 -1.75803 6.04753 -0.55353 -0.490403 0.272596 -12.2273 19.2895 3.72363 -6.64106 28.6545 -1.64005 -11.188 -8.01356 -0.704463 6.78948 -11.9155 -11.3209 -11.7467 24.4531 -5.72491 3.22974 -0.297259 7.97926 -4.70609 -0.232327 -2.92353 -1.22575 0.986587 -0.613017 0.0582174 2.48801 -0.85848 -2.82901 -0.198845 -1.05608 0.231633 3.15136 -1.95752 0.363427 3.71169 -2.91244 1.14438 -0.221268 -1.28213 0.463763 3.32545 -2.26338 0.5046 2.82735 -3.61824 2.02955 -0.0709575 -2.02754 1.73075 3.1312 -2.0929 0.574709 7.12563 12.741 -3.76195 -2.76404 -0.176497 0.333174 -0.00784123 -0.0104403 0.00215512 -18.7545 -3.27968 0.068404 -4.37483 20.5236 -17.7898 14.318 -17.1624 32.6667 -4.4619 0.809675 -15.1414 7.75224 9.55551 4.09841 -0.0375866 -0.338579 0.391807 4.22139 1.43949 -0.120952 2.88342 1.56584 3.11928 2.58217 0.879521 0.041672 1.80034 0.613059 0.0332701 0.914699 0.0150037 -0.509662 2.25946 0.873082 0.110251 1.47139 0.567693 0.0758844 1.57287 -0.926398 -1.32175 0.0148556 0.00459199 -0.000885926 1.7024 0.637087 0.135295 -5.32826 16.1758 6.14931 0.772865 -0.692668 -0.80123 -1.16446 2.63038 0.853782 7.19339 8.50994 -1.61208 -3.59883 0.00149862 -6.59879 4.47676 -3.8139 -5.41028 0.000137457 -3.4153e-006 2.56132e-005 10.3915 -5.93688 -0.476626 -1.94666 17.1729 -7.69138 -0.116566 -7.14696 -5.45063 -0.000127212 -3.92735e-005 6.83015e-006 
0.584596 -0.339172 -2.90708 0 0 -0 -6.31071 -5.84211 13.2684 -0.886669 3.00963 -0.297631 -1.76128 6.02346 -0.549677 -1.76128 6.02348 -0.549678 -0.49148 0.314831 -12.2506 19.3799 3.83018 -6.63176 28.5325 -1.63842 -11.1749 -8.00964 -0.752481 6.77205 -11.9419 -11.3192 -11.738 24.2285 -6.09897 2.82676 -1.16173 8.60654 -4.67815 -0.185313 -2.40791 -0.977125 0.0833133 -0.0518907 0.00452593 1.61792 -0.251555 -2.92598 -0.113135 -0.56314 0.130869 2.24862 -1.39985 0.248487 2.82766 -2.32941 0.989008 -0.136375 -0.738811 0.277805 2.45481 -1.68112 0.375895 1.93287 -3.05736 1.83364 -0.0601085 -1.52779 1.33336 2.25753 -1.51823 0.417126 6.96429 12.6047 -3.66053 -2.63265 -0.211627 0.328944 0.218113 0.289056 -0.0607071 -18.7673 -3.29151 -0.0667646 -4.54574 20.4576 -17.8133 14.3044 -17.2416 32.5846 -4.55346 0.610218 -15.5888 8.74982 9.96402 3.96135 -0.0143039 -0.0916707 0.10198 5.22969 1.78142 -0.165509 3.87127 1.9628 3.11285 3.85473 1.31337 0.0476211 2.80769 0.956445 0.0434916 1.90973 0.388867 -0.457729 3.51155 1.35852 0.156511 2.46278 0.951472 0.118689 2.57496 -0.577644 -1.22524 1.26337 0.47212 0.10214 2.69568 1.0107 0.205475 -5.19901 16.0199 6.02221 0.72797 -0.711185 -0.74504 -1.31534 2.96332 0.96622 7.16111 8.58133 -1.24012 -3.43038 0.00126618 -5.88364 4.50836 -3.97209 -5.36312 0.00165558 0.0107459 -0.000604316 10.3857 -6.00469 -0.711002 -2.00053 17.2161 -7.90617 -0.055819 -7.12892 -5.79281 -6.56725e-005 -0.000495544 -4.26856e-006 
0.614471 -0.340271 -2.89671 0 0 -0 -6.30516 -5.85729 13.5271 -0.885621 2.99554 -0.315057 -1.75833 5.99555 -0.584832 -1.75832 5.99555 -0.584839 -0.497034 0.297457 -12.3853 19.4892 3.91211 -6.69995 28.3376 -1.63568 -11.1583 -8.02981 -0.607273 6.81546 -12.014 -11.3084 -11.828 24.0632 -6.26008 2.69497 -3.32902 10.1763 -4.55238 -0.0768179 -1.09557 -0.408264 -2.17316 1.35399 -0.0909254 -0.553129 1.27159 -3.12797 -1.52805 0.958397 -0.137561 -0.00295966 0.00168254 -0.000320795 0.624297 -0.863653 0.6413 -1.23346 0.849998 -0.154223 0.262352 -0.180069 0.0350589 -0.296014 -1.64601 1.38474 -0.024546 -0.315786 0.294995 0.0767502 -0.0601095 0.0383499 6.5484 12.2335 -3.41134 -2.30469 -0.300432 0.314941 0.784601 1.03659 -0.223031 -18.7477 -3.30652 -0.247099 -4.62041 20.4995 -17.8681 14.5077 -17.502 32.5246 -4.71481 0.518265 -15.5369 11.2521 10.9786 3.57284 2.72175 0.929146 -0.0658952 7.75271 2.63231 -0.303281 6.34247 2.95421 3.06684 7.03715 2.39769 0.0203359 5.32656 1.81519 0.0424899 4.3972 1.32498 -0.357427 6.64172 2.57561 0.225833 4.94081 1.91352 0.1966 5.07926 0.297121 -1.01284 4.39938 1.65409 0.310605 5.16618 1.93055 0.323669 -4.87157 15.5957 5.71213 0.617584 -0.7575 -0.603156 -1.69569 3.79449 1.25128 7.13258 8.54388 -0.69486 -3.27188 0.10407 -5.20184 4.55024 -4.14755 -5.40109 0.00609354 0.0415503 -0.0023167 10.3105 -6.10732 -1.22848 -1.99607 17.2241 -7.89007 -0.0706791 -7.07897 -6.23775 1.82676e-005 -0.000935589 -1.19498e-005 
0.64448 -0.350174 -2.89738 0 0 -0 -6.3084 -5.84943 13.7906 -0.884064 2.97691 -0.329692 -1.7545 5.95851 -0.614489 -1.7545 5.95852 -0.614491 -0.505708 0.201028 -12.6015 19.5365 3.96226 -6.72889 28.1682 -1.63352 -11.1448 -8.10538 -0.301629 6.92099 -12.1435 -11.4215 -11.9275 24.0158 -5.88425 3.03477 -6.16279 12.2221 -4.23867 -1.3753 0.856553 -0.0636353 -5.10644 3.1853 -0.132187 -3.37096 3.26115 -3.30426 -5.21222 3.28441 -0.364673 -2.92228 1.83632 -0.241237 -2.23049 1.05508 0.276184 -4.80202 3.33087 -0.498191 -2.56787 1.77426 -0.300874 -3.18337 0.202957 0.888619 -2.83274 1.92918 -0.423321 -2.76421 1.87785 -0.401436 5.97909 11.685 -3.09501 -1.87939 -0.417922 0.289365 1.52443 2.00594 -0.445209 -18.6687 -3.3269 -0.497127 -4.60165 20.637 -17.9508 14.693 -17.7328 32.4635 -4.60004 0.373761 -16.1146 14.5223 12.2856 2.94006 6.86135 2.33227 -0.250343 11.0388 3.72795 -0.538358 9.56023 4.23842 2.94291 11.1801 3.80206 -0.105264 8.60346 2.93003 -0.0152182 7.63276 2.54146 -0.290291 10.7148 4.16029 0.216279 8.16312 3.16764 0.235608 8.33545 1.4353 -0.799149 8.47396 3.20452 0.484558 8.39784 3.16797 0.468582 -4.43085 14.9731 5.30912 0.477973 -0.817435 -0.415832 -2.19695 4.8721 1.63063 7.11845 8.63504 0.0825074 -3.12699 0.000805548 -4.55091 4.58659 -4.27861 -5.56433 0.0128583 0.088839 -0.00497217 10.1957 -6.30163 -1.94446 -1.942 17.2886 -7.67075 -0.156509 -7.03273 -6.7719 0.0490577 -0.368097 0.000225383 
0.671437 -0.358742 -2.91003 0 0 -0 -6.28344 -5.83165 14.1435 -0.895359 2.97667 -0.346149 -1.77627 5.95834 -0.646914 -1.77627 5.95835 -0.64691 -0.514962 -0.0855498 -12.8378 19.5705 4.06426 -6.86723 27.9693 -1.62819 -11.0286 -8.09744 0.178152 7.26827 -12.3609 -12.3723 -11.6878 23.355 -5.60228 7.69744 -9.03191 14.2502 -3.81835 -5.08023 3.16912 -0.132419 -8.04513 5.01632 -0.079435 -6.18996 5.25699 -3.38259 -8.8988 5.6202 -0.441909 -5.83843 3.68083 -0.38859 -5.07641 2.98964 0.00676323 -8.36804 5.82831 -0.687532 -5.39125 3.7428 -0.540267 -6.05654 2.07454 0.485993 -6.39845 4.39235 -0.821641 -5.59506 3.83516 -0.74517 5.35943 11.0156 -2.79498 -1.45554 -0.537956 0.255481 2.26857 2.97234 -0.68006 -18.5258 -3.35974 -0.908867 -4.55669 21.1935 -18.275 15.1652 -18.6877 32.2041 -4.08768 0.331874 -17.3198 17.8242 13.5549 2.22838 11.0108 3.71839 -0.536034 14.3341 4.80832 -0.836409 12.787 5.51365 2.74652 15.3342 5.19365 -0.33263 11.8854 4.03979 -0.136796 10.8707 3.75981 -0.292029 14.7979 5.74029 0.0936071 11.3893 4.42196 0.203916 11.5897 2.58379 -0.650348 12.5515 4.76338 0.547886 11.631 4.41158 0.543497 -3.96546 14.22 4.91174 0.262364 -0.607884 -0.188782 -2.70631 5.94634 2.0201 7.09346 8.65015 0.867358 -2.9813 0.00143562 -3.92851 4.61991 -4.45681 -5.74763 0.0224695 0.156188 -0.00893502 9.97399 -6.51632 -3.0471 -1.8437 17.3024 -7.27892 -0.302785 -6.94725 -7.19763 0.0713226 -0.534236 0.000292056 
0.722136 -0.358299 -2.91389 0 0 -0 -6.05818 -5.89223 14.7126 -0.966487 3.05056 -0.352806 -1.91821 6.10659 -0.655351 -1.91822 6.1066 -0.655345 -0.534199 -0.232423 -13.3105 19.699 3.96287 -6.92679 27.8801 -1.60994 -10.3711 -7.74491 1.2036 8.49935 -13.415 -17.7378 -10.1437 22.9021 -5.71827 21.9451 -11.2766 15.7949 -3.29006 -7.93536 4.94824 -0.0833449 -10.3131 6.42151 0.0255039 -8.36354 6.7935 -3.37569 -11.744 7.41753 -0.398416 -8.08319 5.10339 -0.437953 -7.26106 4.48868 -0.138754 -11.1179 7.75464 -0.726981 -7.56259 5.26364 -0.658377 -8.25571 3.5335 0.232586 -9.13918 6.30118 -1.02378 -7.76465 5.34315 -0.933815 4.79112 10.2828 -2.58532 -1.13062 -0.631964 0.223743 2.8442 3.7136 -0.869409 -18.2139 -3.39669 -1.39811 -4.04782 23.9771 -19.7631 16.1432 -24.8263 30.7138 -3.65755 -1.75454 -34.5593 20.3876 14.4996 1.49884 14.2123 4.76846 -0.824191 16.8766 5.62673 -1.10823 15.2771 6.48595 2.54615 18.5401 6.25079 -0.576571 14.4148 4.88762 -0.273733 13.3634 4.69959 -0.336698 17.9494 6.94735 -0.077951 13.8754 5.38446 0.131221 14.0904 3.47995 -0.572916 15.6939 5.96328 0.520745 14.1169 5.36182 0.542832 -3.56084 13.4068 4.60462 -0.124386 0.285929 0.0900463 -3.10382 6.77028 2.32676 6.88706 8.73312 0.804405 -2.76735 0.0693956 -3.349 4.68544 -4.65076 -5.17768 0.0320719 0.223536 -0.0128971 9.51628 -6.52062 -4.65372 -1.70459 17.0202 -6.74896 -0.535144 -6.69596 -7.53878 0.0543333 -0.408968 0.000181242 
0.76857 -0.380554 -2.94826 0 0 -0 -5.67309 -6.25052 15.9947 -1.07452 3.18947 -0.40137 -2.13157 6.38586 -0.744425 -2.13157 6.38586 -0.744425 -0.54513 0.938103 -13.5252 20.1438 4.09709 -6.92171 28.7404 -1.59835 -9.5745 -7.16712 0.792243 9.2858 -15.2558 -28.2729 -7.63843 27.0995 -5.27665 35.1003 -12.2212 16.3768 -2.83235 -9.08003 5.65884 -0.0387422 -11.2228 6.98224 0.0832372 -9.23497 7.40785 -3.3564 -12.8858 8.13554 -0.35569 -8.98219 5.67277 -0.442066 -8.12173 5.10723 -0.194187 -12.2211 8.52533 -0.716581 -8.4318 5.87308 -0.689514 -9.1071 4.15685 0.119782 -10.2365 7.06708 -1.07906 -8.63262 5.94815 -0.993324 4.37647 9.54341 -2.53518 -1.00097 -0.669962 0.209686 3.07529 4.00958 -0.947296 -17.9382 -3.42719 -1.80584 -2.84969 29.4675 -22.7317 18.7132 -40.2168 26.7848 -7.68702 -1.66443 -54.5089 21.4339 14.828 0.972417 15.4958 5.18374 -0.955995 17.8957 5.95058 -1.22726 16.2754 6.87229 2.45394 19.8256 6.66961 -0.690906 15.4281 5.22491 -0.339051 14.3536 5.09512 -0.352935 19.2133 7.42728 -0.165387 14.8714 5.76845 0.0903998 15.075 3.882 -0.525895 16.9531 6.44253 0.49137 15.1123 5.74175 0.530939 -3.30413 12.603 4.47266 -0.280327 0.642912 0.203267 -3.26425 7.09926 2.45121 6.68954 9.14953 -0.521833 -2.435 0.0554282 -2.84723 4.71719 -4.82472 -4.0787 0.0442322 0.307666 -0.0177465 8.81043 -6.56229 -7.2489 -1.53863 17.0618 -6.07892 -0.784844 -6.50101 -7.18446 -0.00025194 0.000367423 -0.000146582 
0.667003 -0.533554 -2.89156 0 0 -0 -5.94984 -7.15928 18.1011 -1.08556 3.26689 -0.716826 -2.13527 6.54654 -1.37484 -2.13527 6.54655 -1.37484 -0.505313 4.76523 -12.4283 21.8691 4.79002 -5.97061 29.62 -1.57993 -8.53725 -5.11501 -3.01259 8.65408 -15.7283 -41.4548 -4.17811 29.5161 -8.06174 40.2152 -9.90819 13.1945 -2.23245 -7.33193 4.57292 -0.101179 -9.05797 5.64494 -0.0394475 -6.88597 5.6444 -2.66739 -10.4012 6.57044 -0.430144 -6.84153 4.3165 -0.417526 -5.82675 3.95999 -0.279517 -9.82028 6.84623 -0.719965 -6.36173 4.42209 -0.600158 -6.54926 3.40627 -0.101733 -7.84685 5.40008 -0.939798 -6.56497 4.50842 -0.836509 4.29853 8.42376 -2.71012 -1.18305 -0.616585 0.2292 2.3192 3.03772 -0.69644 -19.0966 -3.40385 -1.34758 -2.98342 32.5672 -24.5109 22.2532 -58.7121 20.0033 -11.6352 -2.30745 -54.3699 18.3105 12.306 0.721808 13.5357 4.54819 -0.758436 15.4698 5.17566 -0.953379 13.5148 5.71686 1.97859 17.0274 5.75409 -0.454097 13.0154 4.41951 -0.193354 11.8479 4.52721 -0.0912189 16.4622 6.37946 0.0113312 12.5 4.85259 0.176565 12.419 3.76427 -0.139305 14.2116 5.39778 0.541771 12.7418 4.83641 0.548252 -3.45111 11.4772 4.58449 -0.0616381 0.141595 0.0445715 -2.7411 6.01903 2.04685 7.55255 9.88726 -1.83771 -2.12226 0.00172147 -2.42973 4.60665 -5.09119 -3.90944 0.0563951 0.391813 -0.0226162 8.76125 -7.78276 -9.53726 -1.38198 19.7113 -5.25471 -0.908959 -7.44804 -6.46969 -0.00020282 0.000470742 -8.68021e-005 
